<?xml version="1.0" encoding="UTF-8" standalone="no"?>
<!-- Created with Inkscape (http://www.inkscape.org/) -->

<svg
   version="1.1"
   id="svg2"
   xml:space="preserve"
   width="388.6734"
   height="385.39053"
   viewBox="0 0 388.6734 385.39053"
   sodipodi:docname="15cc2744d4f4a483b6328a158b212210.ai"
   xmlns:inkscape="http://www.inkscape.org/namespaces/inkscape"
   xmlns:sodipodi="http://sodipodi.sourceforge.net/DTD/sodipodi-0.dtd"
   xmlns="http://www.w3.org/2000/svg"
   xmlns:svg="http://www.w3.org/2000/svg"><defs
     id="defs6"><clipPath
       clipPathUnits="userSpaceOnUse"
       id="clipPath16"><path
         d="M 0,841.89 H 595.28 V 0 H 0 Z"
         id="path14" /></clipPath><clipPath
       clipPathUnits="userSpaceOnUse"
       id="clipPath96"><path
         d="M 0,841.89 H 595.28 V 0 H 0 Z"
         id="path94" /></clipPath></defs><sodipodi:namedview
     id="namedview4"
     pagecolor="#ffffff"
     bordercolor="#666666"
     borderopacity="1.0"
     inkscape:pageshadow="2"
     inkscape:pageopacity="0.0"
     inkscape:pagecheckerboard="0" /><g
     id="g8"
     inkscape:groupmode="layer"
     inkscape:label="15cc2744d4f4a483b6328a158b212210"
     transform="matrix(1.3333333,0,0,-1.3333333,-197.98338,767.69266)"><g
       id="g10"><g
         id="g12"
         clip-path="url(#clipPath16)"><g
           id="g18"
           transform="translate(421.9727,413.7266)"><path
             d="m 0,0 c 0,-70.141 -56.859,-127 -127,-127 -70.14,0 -127,56.859 -127,127 0,70.14 56.86,127 127,127 C -56.859,127 0,70.14 0,0"
             style="fill:#0083cb;fill-opacity:1;fill-rule:nonzero;stroke:none"
             id="path20" /></g></g></g><text
       transform="matrix(0.52446697,0.85143079,0.85143079,-0.52446697,168.6001,475.5556)"
       style="font-variant:normal;font-weight:bold;font-stretch:normal;font-size:33px;font-family:Arial;-inkscape-font-specification:Arial-BoldMT;writing-mode:lr-tb;fill:#000000;fill-opacity:1;fill-rule:nonzero;stroke:none"
       id="text24"><tspan
         x="0"
         y="0"
         id="tspan22">A</tspan></text><text
       transform="matrix(0.64681908,0.76264348,0.76264348,-0.64681908,180.7643,495.1453)"
       style="font-variant:normal;font-weight:bold;font-stretch:normal;font-size:33px;font-family:Arial;-inkscape-font-specification:Arial-BoldMT;writing-mode:lr-tb;fill:#000000;fill-opacity:1;fill-rule:nonzero;stroke:none"
       id="text28"><tspan
         x="0"
         y="0"
         id="tspan26">p</tspan></text><text
       transform="matrix(0.74554137,0.66645935,0.66645935,-0.74554137,193.3038,510.0055)"
       style="font-variant:normal;font-weight:bold;font-stretch:normal;font-size:32.9999px;font-family:Arial;-inkscape-font-specification:Arial-BoldMT;writing-mode:lr-tb;fill:#000000;fill-opacity:1;fill-rule:nonzero;stroke:none"
       id="text32"><tspan
         x="0"
         y="0"
         id="tspan30">n</tspan></text><text
       transform="matrix(0.826661,0.56270027,0.56270027,-0.826661,207.8421,522.9822)"
       style="font-variant:normal;font-weight:bold;font-stretch:normal;font-size:33px;font-family:Arial;-inkscape-font-specification:Arial-BoldMT;writing-mode:lr-tb;fill:#000000;fill-opacity:1;fill-rule:nonzero;stroke:none"
       id="text36"><tspan
         x="0"
         y="0"
         id="tspan34">é</tspan></text><text
       transform="matrix(0.87908809,0.47665934,0.47665934,-0.87908809,222.6802,532.8887)"
       style="font-variant:normal;font-weight:bold;font-stretch:normal;font-size:32.9999px;font-family:Arial;-inkscape-font-specification:Arial-BoldMT;writing-mode:lr-tb;fill:#000000;fill-opacity:1;fill-rule:nonzero;stroke:none"
       id="text40"><tspan
         x="0"
         y="0"
         id="tspan38">f</tspan></text><text
       transform="matrix(0.92502708,0.37990117,0.37990117,-0.92502708,231.7162,538.103)"
       style="font-variant:normal;font-weight:bold;font-stretch:normal;font-size:32.9999px;font-family:Arial;-inkscape-font-specification:Arial-BoldMT;writing-mode:lr-tb;fill:#000000;fill-opacity:1;fill-rule:nonzero;stroke:none"
       id="text44"><tspan
         x="0"
         y="0"
         id="tspan42">ö</tspan></text><text
       transform="matrix(0.96229101,0.2720221,0.2720221,-0.96229101,249.8757,545.3727)"
       style="font-variant:normal;font-weight:bold;font-stretch:normal;font-size:32.9999px;font-family:Arial;-inkscape-font-specification:Arial-BoldMT;writing-mode:lr-tb;fill:#000000;fill-opacity:1;fill-rule:nonzero;stroke:none"
       id="text48"><tspan
         x="0"
         y="0"
         id="tspan46">r</tspan></text><text
       transform="matrix(0.98602555,0.16659416,0.16659416,-0.98602555,261.6526,548.8874)"
       style="font-variant:normal;font-weight:bold;font-stretch:normal;font-size:33px;font-family:Arial;-inkscape-font-specification:Arial-BoldMT;writing-mode:lr-tb;fill:#000000;fill-opacity:1;fill-rule:nonzero;stroke:none"
       id="text52"><tspan
         x="0"
         y="0"
         id="tspan50">e</tspan></text><text
       transform="matrix(0.99940856,0.03438796,0.03438796,-0.99940856,279.0743,551.9348)"
       style="font-variant:normal;font-weight:bold;font-stretch:normal;font-size:32.9999px;font-family:Arial;-inkscape-font-specification:Arial-BoldMT;writing-mode:lr-tb;fill:#000000;fill-opacity:1;fill-rule:nonzero;stroke:none"
       id="text56"><tspan
         x="0"
         y="0"
         id="tspan54">n</tspan></text><text
       transform="matrix(0.99822034,-0.05963346,-0.05963346,-0.99822034,298.7337,552.3308)"
       style="font-variant:normal;font-weight:bold;font-stretch:normal;font-size:32.9999px;font-family:Arial;-inkscape-font-specification:Arial-BoldMT;writing-mode:lr-tb;fill:#000000;fill-opacity:1;fill-rule:nonzero;stroke:none"
       id="text60"><tspan
         x="0"
         y="0"
         id="tspan58">i</tspan></text><text
       transform="matrix(0.98637705,-0.16450022,-0.16450022,-0.98637705,307.3849,552.0908)"
       style="font-variant:normal;font-weight:bold;font-stretch:normal;font-size:33px;font-family:Arial;-inkscape-font-specification:Arial-BoldMT;writing-mode:lr-tb;fill:#000000;fill-opacity:1;fill-rule:nonzero;stroke:none"
       id="text64"><tspan
         x="0"
         y="0"
         id="tspan62">n</tspan></text><text
       transform="matrix(0.9541113,-0.29945221,-0.29945221,-0.9541113,326.5682,548.9448)"
       style="font-variant:normal;font-weight:bold;font-stretch:normal;font-size:32.9999px;font-family:Arial;-inkscape-font-specification:Arial-BoldMT;writing-mode:lr-tb;fill:#000000;fill-opacity:1;fill-rule:nonzero;stroke:none"
       id="text68"><tspan
         x="0"
         y="0"
         id="tspan66">g</tspan></text><text
       transform="matrix(0.90575386,-0.42380413,-0.42380413,-0.90575386,345.1509,543.0964)"
       style="font-variant:normal;font-weight:bold;font-stretch:normal;font-size:32.9999px;font-family:Arial;-inkscape-font-specification:Arial-BoldMT;writing-mode:lr-tb;fill:#000000;fill-opacity:1;fill-rule:nonzero;stroke:none"
       id="text72"><tspan
         x="0"
         y="0"
         id="tspan70">e</tspan></text><text
       transform="matrix(0.84153569,-0.54020151,-0.54020151,-0.84153569,361.1926,535.7072)"
       style="font-variant:normal;font-weight:bold;font-stretch:normal;font-size:32.9999px;font-family:Arial;-inkscape-font-specification:Arial-BoldMT;writing-mode:lr-tb;fill:#000000;fill-opacity:1;fill-rule:nonzero;stroke:none"
       id="text76"><tspan
         x="0"
         y="0"
         id="tspan74">n</tspan></text><text
       transform="matrix(0.71194316,-0.70223709,-0.70223709,-0.71194316,384.5663,519.8094)"
       style="font-variant:normal;font-weight:bold;font-stretch:normal;font-size:33px;font-family:Arial;-inkscape-font-specification:Arial-BoldMT;writing-mode:lr-tb;fill:#000000;fill-opacity:1;fill-rule:nonzero;stroke:none"
       id="text80"><tspan
         x="0"
         y="0"
         id="tspan78">S</tspan></text><text
       transform="matrix(0.60850788,-0.79354783,-0.79354783,-0.60850788,399.6775,504.7945)"
       style="font-variant:normal;font-weight:bold;font-stretch:normal;font-size:32.9999px;font-family:Arial;-inkscape-font-specification:Arial-BoldMT;writing-mode:lr-tb;fill:#000000;fill-opacity:1;fill-rule:nonzero;stroke:none"
       id="text84"><tspan
         x="0"
         y="0"
         id="tspan82">y</tspan></text><text
       transform="matrix(0.4989621,-0.86662381,-0.86662381,-0.4989621,410.5085,490.8449)"
       style="font-variant:normal;font-weight:bold;font-stretch:normal;font-size:32.9999px;font-family:Arial;-inkscape-font-specification:Arial-BoldMT;writing-mode:lr-tb;fill:#000000;fill-opacity:1;fill-rule:nonzero;stroke:none"
       id="text88"><tspan
         x="0"
         y="0"
         id="tspan86">d</tspan></text><g
       id="g90"><g
         id="g92"
         clip-path="url(#clipPath96)"><g
           id="g98"
           transform="translate(298.75,440.5)"><path
             d="m 0,0 -50.75,-64.5 v -25.034 l 0.018,-0.04 96.696,22.887 -0.38,-0.147 0.006,25.334 0.323,0.034 L -12.189,-55.273 -12,-55 45.662,10.901 45.656,36.219 -50.5,12.75 l 0.021,-0.375 0.062,-24.958 0.042,0.083 50.408,12.628 z"
             style="fill:#ffffff;fill-opacity:1;fill-rule:nonzero;stroke:none"
             id="path100" /></g><g
           id="g102"
           transform="translate(225.3335,401)"><path
             d="M 0,0 23.667,4.666 24,-11.667 0,-16 Z"
             style="fill:#ffffff;fill-opacity:1;fill-rule:nonzero;stroke:none"
             id="path104" /></g><g
           id="g106"
           transform="translate(341.667,425.333)"><path
             d="M 0,0 24,4.667 V -12 L 0,-17.333 Z"
             style="fill:#ffffff;fill-opacity:1;fill-rule:nonzero;stroke:none"
             id="path108" /></g><g
           id="g110"
           transform="translate(409.334,468.333)"><path
             d="m 0,0 -43.913,-11.008 0.246,0.675 v 24 l 0.086,-0.029 30.751,7.576 -0.254,0.203 c 1.516,-0.65 4.183,-0.165 6,-0.432 1.997,-0.293 4.48,-1.282 6.013,-2.61 3.14,-2.719 5,-7.696 6.788,-11.472 2.421,-5.113 4.288,-9.755 5.436,-15.485 1.016,-5.071 1.271,-10.133 1.757,-15.514 0.202,-2.231 1.116,-5.118 0.505,-7.487 -0.548,-2.125 -2.011,-4.386 -2.749,-6.5 l 0.283,0.354 -15.616,-16.604 -0.403,-0.802 17.403,4.135 -0.167,-0.083 c 4.991,-6.318 8.112,-20.823 -0.957,-25.043 -0.112,-0.758 -0.467,-0.571 -1.043,-0.707 l -0.103,-0.01 -54.897,-12.99 -0.006,-0.109 0.006,25.775 L 3.333,-7 3.166,-6.833 c 0.251,0.115 0.424,0.227 0.705,0.292 -0.151,1.367 -0.112,4.534 -1.412,5.25 -0.286,1.172 -1.394,2.004 -2.793,1.708 z"
             style="fill:#ffffff;fill-opacity:1;fill-rule:nonzero;stroke:none"
             id="path112" /></g><g
           id="g114"
           transform="translate(191.75,337.5)"><path
             d="m 0,0 c -2.171,1.743 -11.75,5.5 -14.75,7.75 -6.196,4.646 -10.232,14.823 -11.5,22.5 -0.644,3.896 -1.062,9.441 -0.5,13.25 0.628,4.254 3,9.894 3,14.25 l 0.333,0.083 14,16.333 L -9.573,73.888 -24.417,70.166 -24.75,70 c -3.856,2.761 -3.25,8.313 -3.25,12.75 0,5.708 -0.253,9.885 4.5,13.25 l 0.083,-0.167 56.292,13.792 0.042,-0.125 v -25 L -14.75,27.166 V 27.5 c -1.981,-1.961 -1.338,-5.948 2,-5.5 v 0.166 l 45.875,10.959 h 0.029 V 7.917 L 33.167,7.958 0.25,0.166"
             style="fill:#ffffff;fill-opacity:1;fill-rule:nonzero;stroke:none"
             id="path116" /></g></g></g></g></svg>
